<svg xmlns="http://www.w3.org/2000/svg" viewBox="0 0 1024 1024" role="img" aria-label="DocShare favicon">
  <defs>
    <linearGradient id="g" x1="220" y1="80" x2="820" y2="920" gradientUnits="userSpaceOnUse">
      <stop offset="0" stop-color="#6366f1"/>
      <stop offset="1" stop-color="#4f46e5"/>
    </linearGradient>
    <filter id="s" x="-20%" y="-20%" width="140%" height="140%">
      <feDropShadow dx="0" dy="18" stdDeviation="22" flood-color="#4f46e5" flood-opacity="0.12"/>
    </filter>
  </defs>
  <rect width="1024" height="1024" rx="224" fill="white"/>
  <g filter="url(#s)">
    <path d="M252 132h382l138 138v508c0 62-50 112-112 112H252c-62 0-112-50-112-112V244c0-62 50-112 112-112Z" fill="#eef2ff"/>
    <path d="M252 132h382l138 138v508c0 62-50 112-112 112H252c-62 0-112-50-112-112V244c0-62 50-112 112-112Z" fill="none" stroke="url(#g)" stroke-width="42" stroke-linejoin="round"/>
    <path d="M634 132v94c0 25 20 45 45 45h93" fill="#dbe4ff" stroke="url(#g)" stroke-width="42" stroke-linejoin="round"/>
    <rect x="268" y="336" width="404" height="54" rx="27" fill="url(#g)"/>
    <rect x="268" y="452" width="330" height="42" rx="21" fill="#a5b4fc"/>
    <rect x="268" y="538" width="238" height="42" rx="21" fill="#c7d2fe"/>
    <path d="M640 590h114c66 0 120 54 120 120s-54 120-120 120H642l-104 70c-25 17-58-9-47-37l29-75c-28-22-46-56-46-94 0-57 46-104 104-104h62Z" fill="url(#g)"/>
    <circle cx="628" cy="710" r="26" fill="white" opacity="0.95"/>
    <circle cx="740" cy="710" r="26" fill="white" opacity="0.95"/>
  </g>
</svg>
