<svg xmlns="http://www.w3.org/2000/svg" width="900" height="640" viewBox="0 0 900 640" fill="none" role="img" aria-label="SaaS collaboration illustration">

<defs>
  <linearGradient id="gIndigo" x1="0" y1="0" x2="1" y2="1">
    <stop offset="0%" stop-color="#6366f1"/>
    <stop offset="100%" stop-color="#4f46e5"/>
  </linearGradient>
  <linearGradient id="gLav" x1="0" y1="0" x2="1" y2="1">
    <stop offset="0%" stop-color="#eef2ff"/>
    <stop offset="100%" stop-color="#f8f7ff"/>
  </linearGradient>
  <linearGradient id="gSoft" x1="0" y1="0" x2="0" y2="1">
    <stop offset="0%" stop-color="#ffffff"/>
    <stop offset="100%" stop-color="#eef2ff"/>
  </linearGradient>
  <filter id="shadow" x="-20%" y="-20%" width="140%" height="140%">
    <feDropShadow dx="0" dy="18" stdDeviation="22" flood-color="#4f46e5" flood-opacity="0.13"/>
  </filter>
  <filter id="smallShadow" x="-20%" y="-20%" width="140%" height="140%">
    <feDropShadow dx="0" dy="8" stdDeviation="10" flood-color="#312e81" flood-opacity="0.12"/>
  </filter>
  <style>
    .line{fill:#c7d2fe}.line2{fill:#e0e7ff}.dark{fill:#4f46e5}.mid{fill:#6366f1}.lav{fill:#eef2ff}
    .stroke{stroke:#4f46e5;stroke-width:3;stroke-linecap:round;stroke-linejoin:round}.softStroke{stroke:#c7d2fe;stroke-width:2;stroke-linecap:round}
    .uiText{font-family:Inter,Arial,sans-serif;font-weight:700;fill:#4f46e5}.tiny{font-family:Inter,Arial,sans-serif;font-weight:700;fill:#6366f1;font-size:22px}
  </style>
</defs>

<rect width="900" height="640" fill="#ffffff"/>

<circle cx="118" cy="110" r="80" fill="#eef2ff"/>
<circle cx="788" cy="536" r="90" fill="#f5f3ff"/>
<path d="M62 550 C170 510 245 595 360 548 C482 498 560 570 690 525 C772 496 820 514 862 505" stroke="#eef2ff" stroke-width="26" stroke-linecap="round"/>

<g filter="url(#shadow)">
  <rect x="92" y="88" width="484" height="462" rx="34" fill="url(#gSoft)" stroke="#e0e7ff" stroke-width="3"/>
  <rect x="138" y="142" width="240" height="28" rx="14" fill="#4f46e5"/>
  <rect x="138" y="205" width="360" height="16" rx="8" fill="#c7d2fe"/>
  <rect x="138" y="234" width="306" height="16" rx="8" fill="#e0e7ff"/>
  <rect x="138" y="263" width="338" height="16" rx="8" fill="#e0e7ff"/>

  <rect x="124" y="321" width="408" height="84" rx="22" fill="#ffffff" stroke="#4f46e5" stroke-width="4"/>
  <rect x="154" y="346" width="318" height="15" rx="8" fill="#c7d2fe"/>
  <rect x="154" y="376" width="250" height="15" rx="8" fill="#e0e7ff"/>

  <rect x="138" y="455" width="344" height="16" rx="8" fill="#c7d2fe"/>
  <rect x="138" y="484" width="288" height="16" rx="8" fill="#e0e7ff"/>
</g>

<path d="M531 363 C590 362 610 360 650 346" stroke="#c7d2fe" stroke-width="4" stroke-linecap="round" stroke-dasharray="8 12"/>

<g filter="url(#shadow)">
  <path d="M638 167 H804 C840 167 868 195 868 231 V456 C868 492 840 520 804 520 H623 C586 520 558 492 558 456 V232 C558 196 586 168 623 168 H638 Z" fill="#ffffff" stroke="#c7d2fe" stroke-width="3"/>
  <path d="M558 346 L514 367 L558 389 Z" fill="#ffffff" stroke="#c7d2fe" stroke-width="3"/>
  <rect x="606" y="218" width="154" height="18" rx="9" fill="#6366f1"/>

  <circle cx="621" cy="293" r="25" fill="#eef2ff" stroke="#6366f1" stroke-width="3"/>
  <circle cx="621" cy="286" r="8" fill="#6366f1"/><path d="M603 310 C613 297 629 297 638 310" fill="#6366f1"/>
  <rect x="666" y="271" width="138" height="12" rx="6" fill="#c7d2fe"/>
  <rect x="666" y="299" width="98" height="12" rx="6" fill="#e0e7ff"/>

  <path d="M638 345 L638 388" stroke="#c7d2fe" stroke-width="3" stroke-linecap="round"/>
  <circle cx="621" cy="412" r="25" fill="#eef2ff" stroke="#6366f1" stroke-width="3"/>
  <circle cx="621" cy="405" r="8" fill="#4f46e5"/><path d="M603 429 C613 416 629 416 638 429" fill="#4f46e5"/>
  <rect x="666" y="389" width="124" height="12" rx="6" fill="#c7d2fe"/>
  <rect x="666" y="417" width="162" height="12" rx="6" fill="#e0e7ff"/>
</g>

<circle cx="532" cy="324" r="18" fill="#4f46e5"/>
<path d="M525 324 H539 M532 317 V331" stroke="#ffffff" stroke-width="3" stroke-linecap="round"/>

</svg>