<svg xmlns="http://www.w3.org/2000/svg" width="1600" height="900" viewBox="0 0 1600 900" fill="none" role="img" aria-label="SaaS collaboration illustration">

<defs>
  <linearGradient id="gIndigo" x1="0" y1="0" x2="1" y2="1">
    <stop offset="0%" stop-color="#6366f1"/>
    <stop offset="100%" stop-color="#4f46e5"/>
  </linearGradient>
  <linearGradient id="gLav" x1="0" y1="0" x2="1" y2="1">
    <stop offset="0%" stop-color="#eef2ff"/>
    <stop offset="100%" stop-color="#f8f7ff"/>
  </linearGradient>
  <linearGradient id="gSoft" x1="0" y1="0" x2="0" y2="1">
    <stop offset="0%" stop-color="#ffffff"/>
    <stop offset="100%" stop-color="#eef2ff"/>
  </linearGradient>
  <filter id="shadow" x="-20%" y="-20%" width="140%" height="140%">
    <feDropShadow dx="0" dy="18" stdDeviation="22" flood-color="#4f46e5" flood-opacity="0.13"/>
  </filter>
  <filter id="smallShadow" x="-20%" y="-20%" width="140%" height="140%">
    <feDropShadow dx="0" dy="8" stdDeviation="10" flood-color="#312e81" flood-opacity="0.12"/>
  </filter>
  <style>
    .line{fill:#c7d2fe}.line2{fill:#e0e7ff}.dark{fill:#4f46e5}.mid{fill:#6366f1}.lav{fill:#eef2ff}
    .stroke{stroke:#4f46e5;stroke-width:3;stroke-linecap:round;stroke-linejoin:round}.softStroke{stroke:#c7d2fe;stroke-width:2;stroke-linecap:round}
    .uiText{font-family:Inter,Arial,sans-serif;font-weight:700;fill:#4f46e5}.tiny{font-family:Inter,Arial,sans-serif;font-weight:700;fill:#6366f1;font-size:22px}
  </style>
</defs>

<rect width="1600" height="900" fill="#ffffff"/>

<circle cx="210" cy="190" r="110" fill="#eef2ff"/>
<circle cx="1385" cy="735" r="160" fill="#f5f3ff"/>
<path d="M95 780 C275 730 420 810 610 760 C790 713 940 767 1115 719 C1295 670 1395 716 1510 690" stroke="#eef2ff" stroke-width="36" stroke-linecap="round" opacity="0.9"/>

<g filter="url(#shadow)">
  <rect x="110" y="82" width="1380" height="736" rx="38" fill="#ffffff" stroke="#dbe2ff" stroke-width="3"/>
  <rect x="110" y="82" width="1380" height="86" rx="38" fill="url(#gLav)"/>
  <rect x="110" y="134" width="1380" height="34" fill="url(#gLav)"/>
  <circle cx="160" cy="126" r="11" fill="#c7d2fe"/><circle cx="196" cy="126" r="11" fill="#a5b4fc"/><circle cx="232" cy="126" r="11" fill="#818cf8"/>
  <rect x="285" y="108" width="390" height="36" rx="18" fill="#ffffff" stroke="#e0e7ff" stroke-width="2"/>
  <rect x="315" y="122" width="250" height="8" rx="4" fill="#c7d2fe"/>

  <rect x="1010" y="106" width="105" height="38" rx="19" fill="#ffffff" stroke="#c7d2fe" stroke-width="2"/>
  <text x="1045" y="132" class="uiText" font-size="18">v2</text>
  <path d="M1088 121 L1096 129 L1104 121" stroke="#6366f1" stroke-width="3" stroke-linecap="round" stroke-linejoin="round"/>
  <rect x="1132" y="106" width="112" height="38" rx="19" fill="#6366f1" opacity="0.13" stroke="#c7d2fe" stroke-width="2"/>
  <rect x="1160" y="121" width="57" height="8" rx="4" fill="#6366f1"/>
  <rect x="1262" y="106" width="142" height="38" rx="19" fill="#ffffff" stroke="#c7d2fe" stroke-width="2"/>
  <rect x="1293" y="121" width="78" height="8" rx="4" fill="#6366f1"/>

  <!-- document area -->
  <rect x="156" y="205" width="838" height="560" rx="30" fill="#fbfbff" stroke="#e0e7ff" stroke-width="2"/>
  <rect x="216" y="257" width="310" height="26" rx="13" fill="#4f46e5"/>
  <rect x="216" y="316" width="620" height="16" rx="8" fill="#c7d2fe"/>
  <rect x="216" y="345" width="552" height="16" rx="8" fill="#e0e7ff"/>
  <rect x="216" y="374" width="588" height="16" rx="8" fill="#e0e7ff"/>

  <rect x="204" y="426" width="660" height="74" rx="18" fill="#ffffff" stroke="#4f46e5" stroke-width="4"/>
  <rect x="234" y="450" width="555" height="15" rx="8" fill="#c7d2fe"/>
  <rect x="234" y="478" width="430" height="15" rx="8" fill="#e0e7ff"/>
  <circle cx="865" cy="426" r="24" fill="#4f46e5"/>
  <text x="858" y="435" font-family="Inter,Arial,sans-serif" font-size="24" font-weight="800" fill="#ffffff">2</text>

  <rect x="216" y="548" width="365" height="20" rx="10" fill="#6366f1" opacity="0.18"/>
  <rect x="216" y="594" width="620" height="16" rx="8" fill="#c7d2fe"/>
  <rect x="216" y="623" width="520" height="16" rx="8" fill="#e0e7ff"/>
  <rect x="216" y="652" width="590" height="16" rx="8" fill="#e0e7ff"/>
  <rect x="216" y="700" width="240" height="16" rx="8" fill="#c7d2fe"/>

  <!-- side panel -->
  <rect x="1034" y="205" width="410" height="560" rx="30" fill="#ffffff" stroke="#e0e7ff" stroke-width="2"/>
  <rect x="1078" y="250" width="152" height="16" rx="8" fill="#6366f1"/>

  <g>
    <circle cx="1089" cy="319" r="28" fill="#eef2ff" stroke="#6366f1" stroke-width="3"/>
    <circle cx="1089" cy="311" r="9" fill="#6366f1"/><path d="M1069 337 C1079 323 1100 323 1110 337" fill="#6366f1"/>
    <rect x="1137" y="296" width="225" height="82" rx="20" fill="#f8f7ff" stroke="#e0e7ff" stroke-width="2"/>
    <rect x="1164" y="321" width="150" height="10" rx="5" fill="#c7d2fe"/>
    <rect x="1164" y="346" width="104" height="10" rx="5" fill="#e0e7ff"/>
  </g>
  <path d="M1124 386 L1124 446" stroke="#c7d2fe" stroke-width="3" stroke-linecap="round"/>
  <g>
    <circle cx="1089" cy="469" r="28" fill="#eef2ff" stroke="#6366f1" stroke-width="3"/>
    <circle cx="1089" cy="461" r="9" fill="#4f46e5"/><path d="M1069 487 C1079 473 1100 473 1110 487" fill="#4f46e5"/>
    <rect x="1137" y="446" width="245" height="92" rx="20" fill="#ffffff" stroke="#c7d2fe" stroke-width="2"/>
    <rect x="1164" y="473" width="172" height="10" rx="5" fill="#c7d2fe"/>
    <rect x="1164" y="500" width="125" height="10" rx="5" fill="#e0e7ff"/>
  </g>

  <rect x="1078" y="675" width="322" height="48" rx="24" fill="#fbfbff" stroke="#c7d2fe" stroke-width="2"/>
  <rect x="1110" y="695" width="180" height="9" rx="5" fill="#dbe2ff"/>
  <circle cx="1364" cy="699" r="17" fill="#6366f1"/>
  <path d="M1357 699 L1365 691 L1365 697 L1372 697 L1372 701 L1365 701 L1365 707 Z" fill="#ffffff"/>
</g>

</svg>